# xmcd CD database file generated by LOLA_Freedb v0.9beta0
# 
# Track frame offsets:
#      150
#      29371
#      39751
#      54847
#      88262
#      130429
#      171715
#      184606
#      199469
#      238269
#      316179
# 
# Disc length: 4677 seconds
# 
# Revision: 2 
# Processed by: cddbd v1.5.2PL0 Copyright (c) Steve Scherf et al.
# Submitted via: LOLA_Freedb v0.9beta0
# 
DISCID=9a12430b
DTITLE=Patricia Cornwell - Phantom
DYEAR=2010
DGENRE=Hörbuch
TTITLE0=Patricia Cornwell - Phantom 101
TTITLE1=Phantom 102
TTITLE2=Phantom 103
TTITLE3=Phantom 104
TTITLE4=Phantom 105
TTITLE5=Phantom 106
TTITLE6=Phantom 107
TTITLE7=Phantom 108
TTITLE8=Phantom 109
TTITLE9=Phantom 110
TTITLE10=Phantom 111
EXTD=YEAR: 2010
EXTT0=
EXTT1=
EXTT2=
EXTT3=
EXTT4=
EXTT5=
EXTT6=
EXTT7=
EXTT8=
EXTT9=
EXTT10=
PLAYORDER=
